<svg width="100" height="50" viewBox="0 0 100 50" fill="none" xmlns="http://www.w3.org/2000/svg">
<rect x="55.5" y="7.5" width="37" height="35" rx="17.5" fill="url(#paint0_linear_96_2302)"/>
<rect x="55.5" y="7.5" width="37" height="35" rx="17.5" stroke="url(#paint1_linear_96_2302)"/>
<path d="M18.2104 17.5459C19.6672 15.9102 21.6447 15.0923 24.1431 15.0923C26.6414 15.0923 28.619 15.9102 30.0757 17.5459C31.5324 19.1816 32.2607 21.3993 32.2607 24.1987C32.2607 26.9982 31.5324 29.2158 30.0757 30.8516C28.619 32.4792 26.6414 33.293 24.1431 33.293C21.6447 33.293 19.6672 32.4792 18.2104 30.8516C16.7537 29.2158 16.0254 26.9982 16.0254 24.1987C16.0254 21.3993 16.7537 19.1816 18.2104 17.5459ZM28.4155 19.0352C27.3657 17.7575 25.9416 17.1187 24.1431 17.1187C22.3446 17.1187 20.9163 17.7575 19.8584 19.0352C18.8086 20.3047 18.2837 22.0259 18.2837 24.1987C18.2837 26.3634 18.8086 28.0846 19.8584 29.3623C20.9163 30.6318 22.3446 31.2666 24.1431 31.2666C25.9416 31.2666 27.3657 30.6318 28.4155 29.3623C29.4735 28.0846 30.0024 26.3634 30.0024 24.1987C30.0024 22.0259 29.4735 20.3047 28.4155 19.0352ZM37.168 33H34.9951V15.3853H37.1313L46.7749 29.2158H46.8848V15.3853H49.0576V33H46.9214L37.2778 19.2183H37.168V33Z" fill="url(#paint2_linear_96_2302)"/>
<path d="M30.0757 17.5459L30.8225 16.8808L30.0757 17.5459ZM30.0757 30.8516L30.8208 31.5185L30.8225 31.5166L30.0757 30.8516ZM18.2104 30.8516L17.4637 31.5166L17.4653 31.5185L18.2104 30.8516ZM28.4155 19.0352L27.6429 19.67L27.6473 19.6753L28.4155 19.0352ZM19.8584 19.0352L19.0882 18.3974L19.0878 18.3979L19.8584 19.0352ZM19.8584 29.3623L19.0857 29.9972L19.0902 30.0025L19.8584 29.3623ZM28.4155 29.3623L27.6453 28.7245L27.6449 28.725L28.4155 29.3623ZM18.9572 18.211C20.1965 16.8194 21.8856 16.0923 24.1431 16.0923V14.0923C21.4038 14.0923 19.1378 15.0009 17.4637 16.8808L18.9572 18.211ZM24.1431 16.0923C26.4006 16.0923 28.0896 16.8194 29.3289 18.211L30.8225 16.8808C29.1483 15.0009 26.8823 14.0923 24.1431 14.0923V16.0923ZM29.3289 18.211C30.5811 19.6171 31.2607 21.5742 31.2607 24.1987H33.2607C33.2607 21.2243 32.4836 18.7462 30.8225 16.8808L29.3289 18.211ZM31.2607 24.1987C31.2607 26.8233 30.5811 28.7804 29.3289 30.1865L30.8225 31.5166C32.4836 29.6513 33.2607 27.1732 33.2607 24.1987H31.2607ZM29.3305 30.1847C28.0917 31.5688 26.4022 32.293 24.1431 32.293V34.293C26.8807 34.293 29.1462 33.3896 30.8208 31.5185L29.3305 30.1847ZM24.1431 32.293C21.8839 32.293 20.1944 31.5688 18.9556 30.1847L17.4653 31.5185C19.1399 33.3896 21.4055 34.293 24.1431 34.293V32.293ZM18.9572 30.1865C17.705 28.7804 17.0254 26.8233 17.0254 24.1987H15.0254C15.0254 27.1732 15.8025 29.6513 17.4637 31.5166L18.9572 30.1865ZM17.0254 24.1987C17.0254 21.5742 17.705 19.6171 18.9572 18.211L17.4637 16.8808C15.8025 18.7462 15.0254 21.2243 15.0254 24.1987H17.0254ZM29.1882 18.4003C27.9302 16.8693 26.2109 16.1187 24.1431 16.1187V18.1187C25.6722 18.1187 26.8012 18.6456 27.6429 19.67L29.1882 18.4003ZM24.1431 16.1187C22.0752 16.1187 20.3536 16.8692 19.0882 18.3974L20.6286 19.6729C21.4791 18.6458 22.6139 18.1187 24.1431 18.1187V16.1187ZM19.0878 18.3979C17.8481 19.897 17.2837 21.8681 17.2837 24.1987H19.2837C19.2837 22.1836 19.7691 20.7124 20.629 19.6724L19.0878 18.3979ZM17.2837 24.1987C17.2837 26.5227 17.8488 28.4917 19.0858 29.9971L20.631 28.7275C19.7684 27.6776 19.2837 26.2042 19.2837 24.1987H17.2837ZM19.0902 30.0025C20.3564 31.5219 22.0776 32.2666 24.1431 32.2666V30.2666C22.6116 30.2666 21.4763 29.7417 20.6266 28.7221L19.0902 30.0025ZM24.1431 32.2666C26.2086 32.2666 27.9274 31.5218 29.1862 29.9996L27.6449 28.725C26.804 29.7419 25.6745 30.2666 24.1431 30.2666V32.2666ZM29.1858 30.0001C30.4324 28.4945 31.0024 26.5244 31.0024 24.1987H29.0024C29.0024 26.2025 28.5145 27.6748 27.6453 28.7245L29.1858 30.0001ZM31.0024 24.1987C31.0024 21.8664 30.4331 19.8942 29.1837 18.395L27.6473 19.6753C28.5139 20.7152 29.0024 22.1853 29.0024 24.1987H31.0024ZM37.168 33V34H38.168V33H37.168ZM34.9951 33H33.9951V34H34.9951V33ZM34.9951 15.3853V14.3853H33.9951V15.3853H34.9951ZM37.1313 15.3853L37.9516 14.8133L37.6532 14.3853H37.1313V15.3853ZM46.7749 29.2158L45.9546 29.7878L46.2531 30.2158H46.7749V29.2158ZM46.8848 29.2158V30.2158H47.8848V29.2158H46.8848ZM46.8848 15.3853V14.3853H45.8848V15.3853H46.8848ZM49.0576 15.3853H50.0576V14.3853H49.0576V15.3853ZM49.0576 33V34H50.0576V33H49.0576ZM46.9214 33L46.1021 33.5733L46.4006 34H46.9214V33ZM37.2778 19.2183L38.0972 18.6449L37.7986 18.2183H37.2778V19.2183ZM37.168 19.2183V18.2183H36.168V19.2183H37.168ZM37.168 32H34.9951V34H37.168V32ZM35.9951 33V15.3853H33.9951V33H35.9951ZM34.9951 16.3853H37.1313V14.3853H34.9951V16.3853ZM36.3111 15.9572L45.9546 29.7878L47.5952 28.6439L37.9516 14.8133L36.3111 15.9572ZM46.7749 30.2158H46.8848V28.2158H46.7749V30.2158ZM47.8848 29.2158V15.3853H45.8848V29.2158H47.8848ZM46.8848 16.3853H49.0576V14.3853H46.8848V16.3853ZM48.0576 15.3853V33H50.0576V15.3853H48.0576ZM49.0576 32H46.9214V34H49.0576V32ZM47.7407 32.4267L38.0972 18.6449L36.4585 19.7916L46.1021 33.5733L47.7407 32.4267ZM37.2778 18.2183H37.168V20.2183H37.2778V18.2183ZM36.168 19.2183V33H38.168V19.2183H36.168Z" fill="url(#paint3_linear_96_2302)"/>
<rect x="1.5" y="1.5" width="97" height="47" rx="23.5" stroke="url(#paint4_linear_96_2302)" stroke-width="3"/>
<defs>
<linearGradient id="paint0_linear_96_2302" x1="46.3954" y1="25.0679" x2="101.998" y2="25.0679" gradientUnits="userSpaceOnUse">
<stop stop-color="#FF512F"/>
<stop offset="1" stop-color="#F09819"/>
</linearGradient>
<linearGradient id="paint1_linear_96_2302" x1="46.3954" y1="25.0679" x2="101.998" y2="25.0679" gradientUnits="userSpaceOnUse">
<stop stop-color="#FF512F"/>
<stop offset="1" stop-color="#F09819"/>
</linearGradient>
<linearGradient id="paint2_linear_96_2302" x1="6.84828" y1="24.5472" x2="59.5241" y2="24.5472" gradientUnits="userSpaceOnUse">
<stop stop-color="#FF512F"/>
<stop offset="1" stop-color="#F09819"/>
</linearGradient>
<linearGradient id="paint3_linear_96_2302" x1="6.84828" y1="24.5472" x2="59.5241" y2="24.5472" gradientUnits="userSpaceOnUse">
<stop stop-color="#FF512F"/>
<stop offset="1" stop-color="#F09819"/>
</linearGradient>
<linearGradient id="paint4_linear_96_2302" x1="-22.6437" y1="25.0943" x2="123.678" y2="25.0943" gradientUnits="userSpaceOnUse">
<stop stop-color="#FF512F"/>
<stop offset="1" stop-color="#F09819"/>
</linearGradient>
</defs>
</svg>
